<svg xmlns="http://www.w3.org/2000/svg" xml:space="preserve" viewBox="0 0 256 256"><path d="M60.7 10.5c-7 1.4-12.1 4.1-17.3 9.4-3.3 3.2-4.5 4.9-5.9 7.6-3.1 6.5-2.9-.8-2.9 101.4v92.9l1.1 3.7c2.4 8 7 14.1 13.3 17.4 6.2 3.3 1 3.1 89.1 3.1 78 0 79.6 0 81-.9 1-.6 1.7-1.5 2-2.6.4-1.2.5-25.8.4-86l-.1-84.2-1.1-1.3c-6.2-7.7-8.8-16.9-8.3-29.4.4-9.4 2.9-17 7.1-22.2 2.4-2.9 2.7-4.1 1.8-6.3-1.4-3.3 5.1-3.1-80.9-3-42.5 0-78.2.2-79.3.4m146 9.5c0 .2-.5 1.7-1.2 3.3-1.4 3.4-2.8 9.3-3.3 13.3l-.3 2.9h-69.6c-50.3 0-69.8.1-70.6.5-1.8.9-2.6 2.4-2.6 4.5 0 1.6.3 2.3 1.3 3.4l1.3 1.3H202l.3 3.1c.4 3.9 2.2 10.9 3.4 13.8.6 1.2 1 2.3 1 2.5s-31 .4-71.3.4c-78.4 0-74.4.1-79.9-2.8-3.6-1.9-7.6-6-9.4-9.6l-1.5-3v-9.2c0-8.9 0-9.3 1.2-11.8 1.9-4.1 5.9-8 10.3-10.1 2-1 4.9-2 6.3-2.3 3.3-.5 144.3-.7 144.3-.2M50.2 74.5c1.4.8 4.1 2 5.9 2.7l3.4 1.2 76 .1 75.9.1v157.6l-76.8-.1-76.9-.1-2.7-1.1c-3.2-1.3-6.6-4.5-8.1-7.6-2.4-5.1-2.4-1.3-2.4-82.1v-75l1.6 1.3c.8.9 2.6 2.1 4.1 3"/><path d="M124.1 108.6c-8 1.4-14.8 6.5-18.2 13.4-2 4.2-2.6 7.2-2.4 12.4.3 6.2 1.4 8.7 6.3 15.2l1 1.4-3.2 1.7c-13.6 7.1-22.7 24.2-23.8 44.6-.4 6.1.2 7.8 2.8 8.9 2.4 1 80.2 1 82.5 0 2.6-1.1 3.2-2.9 2.9-8.6-1.2-20.7-10.3-37.8-23.9-44.9l-3.2-1.7 1-1.2c4.7-6.1 6.1-9.5 6.4-16 .2-4.1 0-5-1-8.2-2-5.9-5.2-10.1-10.1-13.3-4.8-3.1-11.9-4.6-17.1-3.7m10.2 11c3 1.5 5.4 4 6.9 6.9 1.1 2.2 1.3 3.2 1.3 6.3 0 4.8-1.2 7.7-4.7 10.8-3 2.7-5.7 3.7-9.9 3.7-4.1 0-6.9-1.1-9.9-3.7-7.1-6.5-6.2-17.5 1.8-22.9 3-2 4.5-2.4 8.8-2.2 2.7.1 4.2.4 5.7 1.1m4 39.5c12.2 3.9 20 14.7 23 32.1.4 2.1.7 4.2.7 4.7 0 .8-1.9.8-34.2.8H93.7l.3-2.9c1.1-9.1 5.3-20 10-25.7 4.2-5.1 10.8-8.9 17.7-10.1 4.2-.8 12.5-.2 16.6 1.1"/></svg>